PathFileType	4	(X/Y/Z)	/Users/itak/Documents/Research/Walk-IL/dataset/trc/00009_00004.trc
DataRate	CameraRate	NumFrames	NumMarkers	Units	OrigDataRate	OrigDataStartFrame	OrigNumFrames
100.000000	100.000000	4	53	mm	100.000000	78	630
Frame#	Time	RPSI			LPSI			L3			STRN			T10			C7			CLAV			RBAK			LBAK			LSHO			LUPA			LAEL			LAOL			LWTS			LWPS			LFRA			LIFD			LHPS			LHTS			RSHO			RUPA			RAEL			RAOL			RWTS			RWPS			RFRA			RIFD			RHTS			RHPS			RBHD			LFHD			RFHD			LBHD			LHIP			RHIP			RASI			LASI			LKNE			LTHI			LANK			LTIP			LTOE			LMT1			LMT5			LHEE			RKNE			RTHI			RANK			RTIP			RTOE			RMT1			RMT5			RHEE			
		X1	Y1	Z1	X2	Y2	Z2	X3	Y3	Z3	X4	Y4	Z4	X5	Y5	Z5	X6	Y6	Z6	X7	Y7	Z7	X8	Y8	Z8	X9	Y9	Z9	X10	Y10	Z10	X11	Y11	Z11	X12	Y12	Z12	X13	Y13	Z13	X14	Y14	Z14	X15	Y15	Z15	X16	Y16	Z16	X17	Y17	Z17	X18	Y18	Z18	X19	Y19	Z19	X20	Y20	Z20	X21	Y21	Z21	X22	Y22	Z22	X23	Y23	Z23	X24	Y24	Z24	X25	Y25	Z25	X26	Y26	Z26	X27	Y27	Z27	X28	Y28	Z28	X29	Y29	Z29	X30	Y30	Z30	X31	Y31	Z31	X32	Y32	Z32	X33	Y33	Z33	X34	Y34	Z34	X35	Y35	Z35	X36	Y36	Z36	X37	Y37	Z37	X38	Y38	Z38	X39	Y39	Z39	X40	Y40	Z40	X41	Y41	Z41	X42	Y42	Z42	X43	Y43	Z43	X44	Y44	Z44	X45	Y45	Z45	X46	Y46	Z46	X47	Y47	Z47	X48	Y48	Z48	X49	Y49	Z49	X50	Y50	Z50	X51	Y51	Z51	X52	Y52	Z52	X53	Y53	Z53	

79	0.78	-1230.722778320312	1068.826904296875	-162.3014831542969	-1242.640380859375	1062.240234375	-326.4409790039062	-1244.31103515625	1130.669067382812	-251.8525848388672	-1030.21337890625	1325.021484375	-258.9552001953125	-1274.834838867188	1268.5927734375	-251.0713500976562	-1239.092041015625	1537.746948242188	-268.1446228027344	-1076.577026367188	1449.461059570312	-264.8875732421875	-1282.05322265625	1400.996704101562	-184.0296783447266	-1256.640625	1493.994262695312	-365.3484497070312	-1154.392333984375	1501.610107421875	-440.7299499511719	-1179.724243164062	1374.378051757812	-515.6943969726562	-1169.776733398438	1155.701904296875	-538.4373168945312	-1226.416870117188	1142.544799804688	-449.7247009277344	-1076.537475585938	905.2689819335938	-479.7039489746094	-1152.59375	888.841552734375	-521.8118896484375	-1153.292114257812	1040.310668945312	-542.875244140625	-1038.7919921875	722.9856567382812	-459.6547546386719	-1117.705322265625	800.4728393554688	-520.0972900390625	-1051.88525390625	813.2701416015625	-491.6777954101562	-1154.531982421875	1530.190673828125	-95.29670715332031	-1163.19287109375	1459.326171875	-20.42840957641602	-1191.023071289062	1189.439331054688	5.443734645843506	-1196.991455078125	1160.876708984375	-90.91265869140625	-1058.041259765625	931.8967895507812	-28.14417266845703	-1121.471435546875	917.392822265625	38.72837829589844	-1175.621459960938	1114.328247070312	20.79358100891113	-1039.953125	746.566650390625	-41.69903182983398	-1024.66748046875	822.4004516601562	-13.38640403747559	-1079.725708007812	817.894775390625	37.96722412109375	-1160.216552734375	1719.365844726562	-181.4601898193359	-1027.867919921875	1738.272216796875	-345.7109680175781	-999.9612426757812	1739.453857421875	-251.4204711914062	-1207.213989257812	1721.732788085938	-318.0816955566406	-1149.842041015625	964.6991577148438	-440.5923461914062	-1111.881469726562	963.3844604492188	-63.88416290283203	-1012.511535644531	995.7994995117188	-146.6578063964844	-1031.225219726562	1011.540466308594	-381.5069885253906	-1113.45458984375	517.4066162109375	-390.6217041015625	-1134.289794921875	655.3158569335938	-426.6390991210938	-1212.279907226562	41.00861740112305	-387.2790222167969	-1195.658325195312	288.791259765625	-407.8164367675781	-995.11572265625	40.98127365112305	-313.4996948242188	-1055.867309570312	50.20621109008789	-298.8008728027344	-1087.37548828125	40.20716094970703	-400.8287658691406	-1284.539428710938	48.37845993041992	-336.3505859375	-1117.470703125	525.12939453125	-115.1165390014648	-1090.828491210938	794.719482421875	-72.66055297851562	-1236.825317382812	45.98487854003906	-138.4655914306641	-1147.319580078125	404.7665100097656	-113.9470825195312	-1003.488708496094	45.6540641784668	-174.7532806396484	-1065.462768554688	50.72541809082031	-206.3476104736328	-1087.7314453125	45.46542739868164	-112.0066833496094	-1291.271362304688	48.15564346313477	-184.5147399902344	
80	0.79	-1230.893798828125	1068.808959960938	-162.2541198730469	-1242.837768554688	1062.245239257812	-326.4648132324219	-1244.477661132812	1130.664184570312	-251.8076934814453	-1030.310913085938	1325.03076171875	-258.8932495117188	-1274.980834960938	1268.590454101562	-250.9961395263672	-1239.223999023438	1537.741088867188	-268.1071166992188	-1076.68505859375	1449.466796875	-264.8229064941406	-1282.19921875	1400.977661132812	-183.9505767822266	-1256.756225585938	1493.995727539062	-365.2885437011719	-1154.5244140625	1501.583740234375	-440.6405029296875	-1179.90283203125	1374.356323242188	-515.5986938476562	-1170.0390625	1155.6630859375	-538.28662109375	-1226.677856445312	1142.547973632812	-449.5596313476562	-1076.937866210938	905.1754150390625	-479.5033874511719	-1153.025756835938	888.7923583984375	-521.6099853515625	-1153.69384765625	1040.250610351562	-542.7193603515625	-1037.974853515625	722.2705688476562	-459.4693298339844	-1118.177490234375	800.4014282226562	-519.8872680664062	-1052.32763671875	813.1971435546875	-491.4259033203125	-1154.674926757812	1530.191284179688	-95.22294616699219	-1163.340454101562	1459.310546875	-20.34288597106934	-1191.146484375	1189.41943359375	5.553317546844482	-1197.080688476562	1160.854125976562	-90.77570343017578	-1058.103515625	931.8871459960938	-28.01508331298828	-1121.480346679688	917.3866577148438	38.89665222167969	-1175.70654296875	1114.312133789062	20.94085693359375	-1039.930786132812	746.592529296875	-41.53384780883789	-1024.709228515625	822.3896484375	-13.27920246124268	-1079.71630859375	817.913330078125	38.08403778076172	-1160.822387695312	1719.731689453125	-181.9714965820312	-1027.085083007812	1737.8271484375	-345.1234436035156	-999.979736328125	1739.180908203125	-250.6224822998047	-1206.6904296875	1721.89306640625	-318.9359741210938	-1150.005981445312	964.7133178710938	-440.5238037109375	-1111.981567382812	963.3704833984375	-63.86087799072266	-1012.67529296875	995.7789916992188	-146.6130676269531	-1031.41796875	1011.527221679688	-381.4797058105469	-1113.586791992188	517.4029541015625	-390.57373046875	-1134.437133789062	655.3214111328125	-426.6138305664062	-1212.286254882812	41.00909042358398	-387.2764892578125	-1195.728637695312	288.8020629882812	-407.7984313964844	-995.1240234375	40.99600219726562	-313.4976196289062	-1055.878051757812	50.20729064941406	-298.7902221679688	-1087.387084960938	40.22759628295898	-400.8103942871094	-1284.543579101562	48.36805725097656	-336.3466491699219	-1117.488647460938	525.1290283203125	-115.1328430175781	-1090.907104492188	794.720947265625	-72.66982269287109	-1236.836547851562	45.99258422851562	-138.4761962890625	-1147.33203125	404.7598876953125	-113.9547424316406	-1003.487854003906	45.65512084960938	-174.7551422119141	-1065.45654296875	50.71723556518555	-206.3527374267578	-1087.734130859375	45.46674728393555	-112.0151290893555	-1291.28125	48.15849304199219	-184.5277862548828	
81	0.8	-1231.067138671875	1068.792236328125	-162.2048645019531	-1243.03076171875	1062.251098632812	-326.4892272949219	-1244.632568359375	1130.6630859375	-251.7635192871094	-1030.402954101562	1325.036987304688	-258.830810546875	-1275.120849609375	1268.594360351562	-250.9257202148438	-1239.337280273438	1537.739135742188	-268.0725708007812	-1076.78759765625	1449.467529296875	-264.7599792480469	-1282.333374023438	1400.962768554688	-183.8782806396484	-1256.838256835938	1493.995849609375	-365.2400817871094	-1154.63427734375	1501.558715820312	-440.5596923828125	-1180.063720703125	1374.337768554688	-515.5048828125	-1170.287841796875	1155.626342773438	-538.1273193359375	-1226.92822265625	1142.560668945312	-449.3870849609375	-1077.341796875	905.080078125	-479.2726440429688	-1153.462768554688	888.742919921875	-521.3863525390625	-1154.101684570312	1040.185668945312	-542.5469970703125	-1037.195434570312	721.4535522460938	-459.1852722167969	-1118.647583007812	800.322265625	-519.6461791992188	-1052.788452148438	813.1243896484375	-491.1441345214844	-1154.804321289062	1530.189697265625	-95.15074920654297	-1163.477294921875	1459.292602539062	-20.26082801818848	-1191.259765625	1189.399780273438	5.666176795959473	-1197.159790039062	1160.829711914062	-90.64032745361328	-1058.156372070312	931.876708984375	-27.87153244018555	-1121.486206054688	917.3807983398438	39.0756950378418	-1175.78466796875	1114.2958984375	21.09194946289062	-1039.9033203125	746.6168823242188	-41.34334564208984	-1024.7421875	822.3834838867188	-13.15239429473877	-1079.677734375	817.9325561523438	38.21337509155273	-1161.417358398438	1720.081298828125	-182.4761199951172	-1026.313232421875	1737.398681640625	-344.535400390625	-1000.011169433594	1738.92724609375	-249.8299255371094	-1206.167846679688	1722.025146484375	-319.7767944335938	-1150.164428710938	964.7259521484375	-440.4579467773438	-1112.079833984375	963.3579711914062	-63.83921432495117	-1012.837097167969	995.7596435546875	-146.5720062255859	-1031.59765625	1011.517639160156	-381.4500732421875	-1113.706420898438	517.3990478515625	-390.5266418457031	-1134.581787109375	655.3274536132812	-426.5921630859375	-1212.292358398438	41.01043701171875	-387.275390625	-1195.795776367188	288.8120422363281	-407.7826843261719	-995.1322021484375	41.01001358032227	-313.4963073730469	-1055.88427734375	50.2078742980957	-298.7857055664062	-1087.39599609375	40.24631881713867	-400.7916564941406	-1284.548706054688	48.35884094238281	-336.3423156738281	-1117.498168945312	525.1317749023438	-115.1488189697266	-1090.98046875	794.7249755859375	-72.67409515380859	-1236.847900390625	46.00265121459961	-138.485595703125	-1147.334350585938	404.7538452148438	-113.9598770141602	-1003.486999511719	45.65590667724609	-174.7567596435547	-1065.448364257812	50.70710754394531	-206.3571624755859	-1087.734619140625	45.46837615966797	-112.0242309570312	-1291.288818359375	48.15986251831055	-184.5404205322266	
82	0.8100000000000001	-1231.244384765625	1068.77685546875	-162.1545562744141	-1243.219970703125	1062.257446289062	-326.51123046875	-1244.779418945312	1130.665771484375	-251.7203674316406	-1030.490966796875	1325.038940429688	-258.767822265625	-1275.25634765625	1268.605224609375	-250.8594055175781	-1239.431640625	1537.741088867188	-268.0386657714844	-1076.883178710938	1449.462524414062	-264.6991271972656	-1282.453002929688	1400.953369140625	-183.811767578125	-1256.889892578125	1493.995849609375	-365.1984252929688	-1154.720581054688	1501.535888671875	-440.4878845214844	-1180.205810546875	1374.322631835938	-515.4130859375	-1170.526977539062	1155.591430664062	-537.9596557617188	-1227.17333984375	1142.58251953125	-449.2074890136719	-1077.748046875	904.9845581054688	-479.0123596191406	-1153.904541015625	888.6932373046875	-521.141845703125	-1154.508422851562	1040.116577148438	-542.3580322265625	-1036.512573242188	720.5938720703125	-458.8169555664062	-1119.116577148438	800.2346801757812	-519.375244140625	-1053.26513671875	813.0488891601562	-490.8375244140625	-1154.918090820312	1530.184936523438	-95.07913970947266	-1163.602416992188	1459.272705078125	-20.18314933776855	-1191.361938476562	1189.381103515625	5.781612396240234	-1197.231201171875	1160.804077148438	-90.50782775878906	-1058.2021484375	931.86572265625	-27.7157154083252	-1121.493408203125	917.376220703125	39.26241302490234	-1175.85546875	1114.280639648438	21.24452209472656	-1039.880981445312	746.6373291015625	-41.12827682495117	-1024.76904296875	822.3828125	-13.00470542907715	-1079.617797851562	817.9511108398438	38.35502243041992	-1161.997436523438	1720.411865234375	-182.9694976806641	-1025.553833007812	1736.992553710938	-343.9508361816406	-1000.050476074219	1738.695556640625	-249.0476837158203	-1205.649047851562	1722.131225585938	-320.600341796875	-1150.318969726562	964.7367553710938	-440.3956909179688	-1112.178588867188	963.3468017578125	-63.8189811706543	-1012.996765136719	995.7423095703125	-146.5338745117188	-1031.765380859375	1011.510070800781	-381.4201354980469	-1113.812744140625	517.395263671875	-390.4810791015625	-1134.725341796875	655.3341674804688	-426.5751647949219	-1212.2978515625	41.01241683959961	-387.2754211425781	-1195.858154296875	288.8206481933594	-407.7687377929688	-995.1404418945312	41.023193359375	-313.4958801269531	-1055.8857421875	50.20794677734375	-298.7886962890625	-1087.402954101562	40.26373291015625	-400.7726135253906	-1284.5546875	48.3510856628418	-336.3377990722656	-1117.499877929688	525.1385498046875	-115.1652679443359	-1091.051513671875	794.7313842773438	-72.67135620117188	-1236.859008789062	46.01522827148438	-138.4939270019531	-1147.325805664062	404.7486267089844	-113.9634017944336	-1003.485900878906	45.65621185302734	-174.7583923339844	-1065.438232421875	50.69513702392578	-206.3611297607422	-1087.732666015625	45.47066116333008	-112.0338821411133	-1291.294677734375	48.16072082519531	-184.5529937744141	
